# xmcd
#
# Track frame offsets: 
#        150
#        35413
#        63608
#        103314
#        120980
#        149408
#
# Disc length: 2222 seconds
#
# Revision: 0
# Processed by: cddbd v1.5.1PL2 Copyright (c) Steve Scherf et al.
# Submitted via: ExactAudioCopy v0.95a4
#
DISCID=5508ac06
DTITLE=Tinsley Ellis - Cafe Classics - Doylestown PA - 8-9-03 - Disc 2
DYEAR=2003
DGENRE=Blues
TTITLE0=Walkin' Blues
TTITLE1=Big Railroad Blues
TTITLE2=Must Be the Devil
TTITLE3=Jam
TTITLE4=I'm So Glad
TTITLE5=Crossroads
EXTD=
EXTT0=
EXTT1=
EXTT2=
EXTT3=
EXTT4=
EXTT5=
PLAYORDER=
